<?xml version="1.0" encoding="UTF-8"?>
<svg version="1.1" xmlns="http://www.w3.org/2000/svg" width="141" height="141">
<path d="M0 0 C3.4375 0.75 3.4375 0.75 5.4375 2.75 C5.75634766 5.08837891 5.75634766 5.08837891 5.8515625 7.9765625 C5.89023438 9.0078125 5.92890625 10.0390625 5.96875 11.1015625 C5.9996875 12.18179687 6.030625 13.26203125 6.0625 14.375 C6.10117188 15.46296875 6.13984375 16.5509375 6.1796875 17.671875 C6.27416247 20.36441165 6.35972431 23.05693757 6.4375 25.75 C7.17613281 24.96496094 7.91476563 24.17992188 8.67578125 23.37109375 C21.13150032 10.37085105 36.36258293 0.25434466 54.90625 -0.62109375 C67.32565189 -0.87339971 77.98183642 -0.19526924 89.4375 4.75 C90.42621094 5.1728125 91.41492188 5.595625 92.43359375 6.03125 C100.30115587 9.87017393 106.29791559 15.63754188 112.4375 21.75 C113.03433594 22.31203125 113.63117188 22.8740625 114.24609375 23.453125 C125.97976661 35.53658215 130.79192875 54.59691406 130.58984375 70.8984375 C129.54172715 90.51703021 120.99145247 106.13589685 107.4375 119.75 C106.87546875 120.34683594 106.3134375 120.94367188 105.734375 121.55859375 C93.26180305 133.67011756 75.15376243 137.25297579 58.50683594 137.09765625 C40.64791099 136.63394655 24.83708871 129.68675501 12.4375 116.75 C11.74398438 116.08742188 11.05046875 115.42484375 10.3359375 114.7421875 C5.93379353 110.27205675 2.94994768 105.42377137 0.125 99.875 C-0.20064941 99.23941162 -0.52629883 98.60382324 -0.86181641 97.94897461 C-6.51255413 86.26696327 -7.01299101 75.18261476 -6.9609375 62.46484375 C-6.96296179 60.71415587 -6.96587618 58.96346882 -6.96963501 57.21278381 C-6.97403116 53.56763576 -6.96770832 49.92270992 -6.95361328 46.27758789 C-6.93640791 41.59997905 -6.94645068 36.92288239 -6.96433067 32.24529171 C-6.97514463 28.64142454 -6.9717352 25.03768004 -6.9639473 21.43380928 C-6.96194457 19.70777895 -6.9644071 17.98173752 -6.97138596 16.25572014 C-6.97897376 13.85499086 -6.96744004 11.45510916 -6.95068359 9.05444336 C-6.95675629 8.34020706 -6.96282898 7.62597076 -6.96908569 6.89009094 C-6.94345093 4.91563416 -6.94345093 4.91563416 -6.5625 1.75 C-3.5625 -0.25 -3.5625 -0.25 0 0 Z M18.5390625 32.25390625 C9.27549138 43.25654928 4.52402339 57.0310014 5.0546875 71.4296875 C6.83338774 86.85718961 12.88390924 100.9555285 25.046875 110.87890625 C27.78886946 112.9354021 30.57125696 114.87125091 33.4375 116.75 C34.08332031 117.17410156 34.72914062 117.59820312 35.39453125 118.03515625 C47.785507 125.13499638 63.46816927 124.92058688 76.9140625 121.78515625 C91.25804937 117.57101377 102.88885977 108.64489323 110.4375 95.75 C118.14596484 79.29350635 119.37531209 65.00850055 113.4375 47.75 C107.36859474 33.34326744 96.32842364 22.95925176 82.0625 16.875 C59.28421951 7.7997484 35.08364354 14.92009608 18.5390625 32.25390625 Z " fill="#B49B56" transform="translate(8.5625,2.25)"/>
<path d="M0 0 C7.79853798 5.804737 7.79853798 5.804737 9.4765625 10.359375 C9.33923118 13.2433327 8.86035858 14.80287069 7.2265625 17.171875 C4.80968049 18.81190208 3.35973649 18.6613003 0.4765625 18.359375 C-1.59375 16.96875 -1.59375 16.96875 -3.6484375 15.109375 C-10.31810632 9.61801433 -17.945428 7.07420912 -26.5234375 6.359375 C-37.38924442 7.85205151 -46.20492639 10.84102625 -53.32421875 19.56640625 C-59.54273857 28.27827054 -60.42920881 36.83125394 -59.5234375 47.359375 C-57.61595472 56.46152439 -51.63544002 63.97723069 -43.94921875 69.0625 C-36.06225805 73.06930631 -26.92926498 74.55229857 -18.2109375 72.671875 C-12.6521147 70.69331095 -7.77405469 68.63175226 -3.3984375 64.609375 C-0.5234375 62.359375 -0.5234375 62.359375 2.6640625 61.859375 C5.4765625 62.359375 5.4765625 62.359375 7.3515625 63.421875 C9.29636813 66.77126248 9.2272324 68.54346965 8.4765625 72.359375 C1.7066228 80.7343943 -8.87572564 86.19052843 -19.5234375 87.359375 C-34.24582384 88.44558966 -46.04411938 85.85354788 -57.5234375 76.359375 C-68.6787185 66.47173957 -73.63465972 55.20246395 -74.8359375 40.546875 C-74.32641035 25.92044845 -69.01406744 13.68961004 -58.4375 3.65625 C-41.5670877 -9.6410723 -18.35780161 -11.93541281 0 0 Z " fill="#B0954B" transform="translate(96.5234375,30.640625)"/>
<path d="M0 0 C2.71224618 1.61268692 5.37352812 3.24901874 8 5 C8.66 5 9.32 5 10 5 C8.78869178 8.44756956 7.61489782 10.49405626 5 13 C4.77441406 13.60585937 4.54882812 14.21171875 4.31640625 14.8359375 C2.40439481 17.97912545 -0.41861171 19.34600453 -3.5625 21.0625 C-4.18785645 21.41248047 -4.81321289 21.76246094 -5.45751953 22.12304688 C-10.1694312 24.697809 -14.81196651 26.56881835 -20 28 C-20.66 27.34 -21.32 26.68 -22 26 C-21.01 24.02 -20.02 22.04 -19 20 C-19.99 19.67 -20.98 19.34 -22 19 C-21.01 18.1028125 -21.01 18.1028125 -20 17.1875 C-17.6626154 15.12498166 -17.6626154 15.12498166 -18 12 C-17.3709375 11.72027344 -16.741875 11.44054687 -16.09375 11.15234375 C-9.83391717 8.22040398 -4.95848748 4.80613172 0 0 Z " fill="#AF9041" transform="translate(109,109)"/>
<path d="M0 0 C1.32 0 2.64 0 4 0 C4.33 1.32 4.66 2.64 5 4 C5.43828125 3.34515625 5.8765625 2.6903125 6.328125 2.015625 C10.50418229 -1.13473401 14.6736335 -0.42574638 19.75 -0.25 C21.22533203 -0.22292969 21.22533203 -0.22292969 22.73046875 -0.1953125 C25.15463783 -0.14824126 27.57682059 -0.08250742 30 0 C30 1.32 30 2.64 30 4 C28.35 4 26.7 4 25 4 C25 8.29 25 12.58 25 17 C23.68 17 22.36 17 21 17 C21 12.71 21 8.42 21 4 C19.35 4 17.7 4 16 4 C15.67 3.34 15.34 2.68 15 2 C13.68 3.32 12.36 4.64 11 6 C12.10632954 8.29776136 13.28060705 10.45328831 14.625 12.625 C16 15 16 15 16 17 C13.75 17.375 13.75 17.375 11 17 C8.8125 14 8.8125 14 7 11 C6.34 11 5.68 11 5 11 C4.67 12.98 4.34 14.96 4 17 C2.68 17 1.36 17 0 17 C0 11.39 0 5.78 0 0 Z " fill="#A18648" transform="translate(62,60)"/>
<path d="M0 0 C0.66 0 1.32 0 2 0 C2 0.66 2 1.32 2 2 C2.7425 2.144375 3.485 2.28875 4.25 2.4375 C6.52027739 2.90187492 8.75759479 3.41863569 11 4 C10.63693882 9.75711297 8.45138856 12.40144265 4.625 16.375 C4.13 16.92027344 3.635 17.46554688 3.125 18.02734375 C1.81949054 19.42011988 0.41458905 20.71815831 -1 22 C-1.99 22 -2.98 22 -4 22 C-2.26440562 18.942048 -0.61527381 16.36620011 2 14 C1.01 14.33 0.02 14.66 -1 15 C-5.58181818 11.83636364 -5.58181818 11.83636364 -7 9 C-5.88266271 7.49428343 -4.75589965 5.99555708 -3.625 4.5 C-2.99851562 3.6646875 -2.37203125 2.829375 -1.7265625 1.96875 C-1.15679687 1.3190625 -0.58703125 0.669375 0 0 Z " fill="#C1AB68" transform="translate(117,100)"/>
<path d="M0 0 C2.71224618 1.61268692 5.37352812 3.24901874 8 5 C8.66 5 9.32 5 10 5 C8.78869178 8.44756956 7.61489782 10.49405626 5 13 C4.566875 13.99 4.566875 13.99 4.125 15 C2.57975366 17.74710461 0.82641317 18.69019877 -2 20 C-2.99 19.67 -3.98 19.34 -5 19 C-6.2375 11.85 -6.2375 11.85 -5 8 C-5 7.01 -5 6.02 -5 5 C-2.5 2.3125 -2.5 2.3125 0 0 Z " fill="#B69D53" transform="translate(109,109)"/>
<path d="M0 0 C1.65 0 3.3 0 5 0 C6.19716659 2.45404224 7.3829346 4.91251679 8.5625 7.375 C9.07586914 8.42300781 9.07586914 8.42300781 9.59960938 9.4921875 C10.46030712 11.30052216 11.23652436 13.14851956 12 15 C11.67 15.66 11.34 16.32 11 17 C9.35 16.67 7.7 16.34 6 16 C6 15.01 6 14.02 6 13 C3.69 13 1.38 13 -1 13 C-1.33 14.32 -1.66 15.64 -2 17 C-3.65 17 -5.3 17 -7 17 C-5.1668733 11.00067626 -2.92678249 5.55079437 0 0 Z " fill="#A08540" transform="translate(49,60)"/>
<path d="M0 0 C1.65 0 3.3 0 5 0 C5.99 2.64 6.98 5.28 8 8 C9.32 5.36 10.64 2.72 12 0 C13.65 0 15.3 0 17 0 C15.13236819 5.72210596 13.14710968 11.37661751 11 17 C9.35 17 7.7 17 6 17 C4.9932996 14.73192796 3.99448234 12.46092246 3 10.1875 C2.71382813 9.54490234 2.42765625 8.90230469 2.1328125 8.24023438 C0.86288959 5.32243531 0 3.21734286 0 0 Z " fill="#CBB97E" transform="translate(99,60)"/>
<path d="M0 0 C4.62 0 9.24 0 14 0 C14 1.32 14 2.64 14 4 C12.35 4 10.7 4 9 4 C9 8.29 9 12.58 9 17 C7.68 17 6.36 17 5 17 C5 12.71 5 8.42 5 4 C3.35 4 1.7 4 0 4 C0 2.68 0 1.36 0 0 Z " fill="#B29958" transform="translate(78,60)"/>
<path d="M0 0 C1.32 0 2.64 0 4 0 C4 1.65 4 3.3 4 5 C5.32 5.33 6.64 5.66 8 6 C8 7.65 8 9.3 8 11 C7.01 11 6.02 11 5 11 C4.67 12.98 4.34 14.96 4 17 C2.68 17 1.36 17 0 17 C0 11.39 0 5.78 0 0 Z " fill="#B19655" transform="translate(62,60)"/>
<path d="M0 0 C1.65 0 3.3 0 5 0 C5 5.61 5 11.22 5 17 C3.35 16.67 1.7 16.34 0 16 C0 10.72 0 5.44 0 0 Z " fill="#C2AA5C" transform="translate(93,60)"/>
<path d="M0 0 C0.99 0.66 1.98 1.32 3 2 C2.34 4.97 1.68 7.94 1 11 C1.66 11.33 2.32 11.66 3 12 C3.33 12.99 3.66 13.98 4 15 C-1.75 18 -1.75 18 -4 18 C-3.835 17.401875 -3.67 16.80375 -3.5 16.1875 C-2.8885876 13.88655664 -2.8885876 13.88655664 -3 11 C-2.68911632 9.32900023 -2.35919668 7.66128463 -2 6 C-2.99 6 -3.98 6 -5 6 C-3.63016497 2.83884224 -3.0109362 2.0072908 0 0 Z " fill="#AD944B" transform="translate(102,115)"/>
<path d="M0 0 C0.99 0.33 1.98 0.66 3 1 C3 1.66 3 2.32 3 3 C3.66 3 4.32 3 5 3 C5 3.99 5 4.98 5 6 C5.66 6 6.32 6 7 6 C7.33 5.34 7.66 4.68 8 4 C9.65 4.33 11.3 4.66 13 5 C12.67 5.99 12.34 6.98 12 8 C14.12780579 10.34058637 16.11562221 11.70700306 19 13 C18.67 13.66 18.34 14.32 18 15 C10.91649617 11.79098052 4.958831 7.99447912 -1 3 C-0.67 2.01 -0.34 1.02 0 0 Z " fill="#967C37" transform="translate(36,101)"/>
<path d="M0 0 C2.97 0 5.94 0 9 0 C8.67 1.65 8.34 3.3 8 5 C3.545 6.485 3.545 6.485 -1 8 C-1.66 7.34 -2.32 6.68 -3 6 C-2.01 4.02 -1.02 2.04 0 0 Z " fill="#A4893E" transform="translate(90,129)"/>
<path d="M0 0 C1.61949011 2.57213134 2.04408751 3.67669159 1.625 6.75 C1.41875 7.4925 1.2125 8.235 1 9 C0.030625 9.268125 -0.93875 9.53625 -1.9375 9.8125 C-2.948125 10.204375 -3.95875 10.59625 -5 11 C-5.33 11.99 -5.66 12.98 -6 14 C-7.0326802 11.21176345 -7.04509293 10.1322726 -6.0625 7.25 C-5.711875 6.5075 -5.36125 5.765 -5 5 C-4.34 5 -3.68 5 -3 5 C-2.690625 4.360625 -2.38125 3.72125 -2.0625 3.0625 C-1 1 -1 1 0 0 Z " fill="#D5C385" transform="translate(129,79)"/>
<path d="M0 0 C3.26460973 1.80412643 4.88929795 2.83394693 7 6 C9.05925139 6.72382467 9.05925139 6.72382467 11 7 C11 7.99 11 8.98 11 10 C13.31 10.33 15.62 10.66 18 11 C18.33 11.99 18.66 12.98 19 14 C18.34 14.66 17.68 15.32 17 16 C4.63153755 7.81242627 4.63153755 7.81242627 0 2 C0 1.34 0 0.68 0 0 Z " fill="#907638" transform="translate(19,115)"/>
<path d="M0 0 C1.66611905 -0.042721 3.33382885 -0.04063832 5 0 C6 1 6 1 6.125 4.4375 C6 8 6 8 5 10 C3.35 10 1.7 10 0 10 C0.33 9.01 0.66 8.02 1 7 C0.72230092 4.6593935 0.39460023 2.32375692 0 0 Z " fill="#BBA266" transform="translate(49,60)"/>
<path d="M0 0 C1.93773248 3.2603118 2.27072187 5.72861936 2.25 9.5 C2.25515625 10.4384375 2.2603125 11.376875 2.265625 12.34375 C1.99595232 15.04047676 1.3732259 16.68949293 0 19 C-1.03158741 15.60231132 -1.13377596 12.47860037 -1.125 8.9375 C-1.12757813 7.89464844 -1.13015625 6.85179688 -1.1328125 5.77734375 C-1 3 -1 3 0 0 Z " fill="#C4B694" transform="translate(137,61)"/>
<path d="M0 0 C1.125 1.6875 1.125 1.6875 2 4 C1.125 6.75 1.125 6.75 0 9 C-1.65 9 -3.3 9 -5 9 C-5.66 7.35 -6.32 5.7 -7 4 C-4.37886292 4 -2.49064888 4.31292445 0 5 C0 3.35 0 1.7 0 0 Z " fill="#A59261" transform="translate(110,68)"/>
<path d="M0 0 C1.98 0.99 1.98 0.99 4 2 C3.67 8.27 3.34 14.54 3 21 C2.67 21 2.34 21 2 21 C1.66280953 18.43795456 1.33012847 15.87545682 1 13.3125 C0.90460938 12.59126953 0.80921875 11.87003906 0.7109375 11.12695312 C0.23316265 7.39007129 -0.11919794 3.77708469 0 0 Z " fill="#CABA90" transform="translate(124,55)"/>
<path d="M0 0 C1.65 0 3.3 0 5 0 C6.10348268 3.31044803 5.99444068 5.65506316 5 9 C4.01 9.495 4.01 9.495 3 10 C0 3.375 0 3.375 0 0 Z " fill="#AD9B63" transform="translate(99,60)"/>
<path d="M0 0 C0.33 0.66 0.66 1.32 1 2 C1.66 2.33 2.32 2.66 3 3 C2.34 3.66 1.68 4.32 1 5 C0.79404499 7.36564173 0.79404499 7.36564173 0.9375 10.0625 C1.03819241 15.1508233 0.66138026 19.95697555 0 25 C-0.33 25 -0.66 25 -1 25 C-1.02886984 21.02084841 -1.04675406 17.04172347 -1.0625 13.0625 C-1.07087891 11.92619141 -1.07925781 10.78988281 -1.08789062 9.61914062 C-1.09111328 8.53955078 -1.09433594 7.45996094 -1.09765625 6.34765625 C-1.10289307 5.34742432 -1.10812988 4.34719238 -1.11352539 3.31665039 C-1 1 -1 1 0 0 Z " fill="#A89053" transform="translate(3,3)"/>
<path d="M0 0 C3.76279642 4.44694123 5.00294573 9.35002579 6 15 C5.01 15 4.02 15 3 15 C2.49363393 13.25183142 1.99515381 11.50137737 1.5 9.75 C1.2215625 8.77546875 0.943125 7.8009375 0.65625 6.796875 C0 4 0 4 0 0 Z " fill="#8E7438" transform="translate(2,79)"/>
<path d="M0 0 C3.63 0 7.26 0 11 0 C11.66 1.32 12.32 2.64 13 4 C11.35 4.33 9.7 4.66 8 5 C7.67 3.68 7.34 2.36 7 1 C4.69 1 2.38 1 0 1 C0 0.67 0 0.34 0 0 Z " fill="#998B4F" transform="translate(48,72)"/>
<path d="M0 0 C3.92671231 1.3089041 6.43926031 2.7076204 9 6 C9.75 9.25 9.75 9.25 10 12 C9.01 12.495 9.01 12.495 8 13 C7.731875 11.865625 7.46375 10.73125 7.1875 9.5625 C6.5996875 7.7990625 6.5996875 7.7990625 6 6 C5.01 5.67 4.02 5.34 3 5 C3 4.34 3 3.68 3 3 C2.34 3 1.68 3 1 3 C0.67 2.01 0.34 1.02 0 0 Z " fill="#B6A173" transform="translate(96,32)"/>
<path d="M0 0 C1.32 0.99 2.64 1.98 4 3 C3.67 4.32 3.34 5.64 3 7 C1.35 7 -0.3 7 -2 7 C-1.34 4.69 -0.68 2.38 0 0 Z " fill="#857234" transform="translate(44,70)"/>
<path d="M0 0 C0.66 0.33 1.32 0.66 2 1 C2.40729228 3.32156597 2.74438677 5.6568787 3 8 C2.01 8 1.02 8 0 8 C-1.09658936 4.71023192 -0.79953138 3.28696233 0 0 Z " fill="#BFAB70" transform="translate(104,64)"/>
<path d="M0 0 C0.90492187 0.02320313 1.80984375 0.04640625 2.7421875 0.0703125 C4.10730469 0.09738281 4.10730469 0.09738281 5.5 0.125 C6.19867188 0.14820313 6.89734375 0.17140625 7.6171875 0.1953125 C7.6171875 1.1853125 7.6171875 2.1753125 7.6171875 3.1953125 C3.6571875 2.8653125 -0.3028125 2.5353125 -4.3828125 2.1953125 C-2.3828125 0.1953125 -2.3828125 0.1953125 0 0 Z " fill="#896129" transform="translate(57.3828125,135.8046875)"/>
<path d="M0 0 C2.31 1.65 4.62 3.3 7 5 C6.67 6.32 6.34 7.64 6 9 C4.66666667 7.66666667 3.33333333 6.33333333 2 5 C1.34 5 0.68 5 0 5 C0 3.35 0 1.7 0 0 Z " fill="#81672B" transform="translate(32,111)"/>
<path d="M0 0 C0.66 0 1.32 0 2 0 C1.38461538 6.52307692 1.38461538 6.52307692 -0.5625 8.9375 C-1.036875 9.288125 -1.51125 9.63875 -2 10 C-1.125 2.25 -1.125 2.25 0 0 Z " fill="#C6B981" transform="translate(133,90)"/>
<path d="M0 0 C2.31 0 4.62 0 7 0 C5.35 1.65 3.7 3.3 2 5 C1.34 4.67 0.68 4.34 0 4 C0 2.68 0 1.36 0 0 Z " fill="#958545" transform="translate(71,60)"/>
<path d="M0 0 C3.125 0.375 3.125 0.375 6 1 C6 1.99 6 2.98 6 4 C6.66 4.33 7.32 4.66 8 5 C4.28111761 4.49287967 1.26545761 3.88391785 -2 2 C-1.34 1.34 -0.68 0.68 0 0 Z " fill="#C1B179" transform="translate(89,16)"/>
<path d="M0 0 C0.99 0 1.98 0 3 0 C3.33 1.32 3.66 2.64 4 4 C3.01 4.33 2.02 4.66 1 5 C0.67 5.99 0.34 6.98 0 8 C-0.98120464 4.94736336 -0.98120464 3.05263664 0 0 Z " fill="#C2AF7C" transform="translate(123,85)"/>
<path d="M0 0 C0.66 0.33 1.32 0.66 2 1 C0.515 4.96 0.515 4.96 -1 9 C-1.66 9 -2.32 9 -3 9 C-2.4140625 2.84765625 -2.4140625 2.84765625 -2 1 C-1.34 0.67 -0.68 0.34 0 0 Z " fill="#BDA375" transform="translate(127,75)"/>
<path d="M0 0 C0.66 0.33 1.32 0.66 2 1 C1.34 2.32 0.68 3.64 0 5 C-1.32 5 -2.64 5 -4 5 C-3.6875 3.0625 -3.6875 3.0625 -3 1 C-2.01 0.67 -1.02 0.34 0 0 Z " fill="#A38E45" transform="translate(19,26)"/>
<path d="M0 0 C1.32 0 2.64 0 4 0 C4 1.98 4 3.96 4 6 C3.01 5.67 2.02 5.34 1 5 C0.67 3.35 0.34 1.7 0 0 Z " fill="#BE9A5F" transform="translate(93,60)"/>
<path d="M0 0 C0.99 0 1.98 0 3 0 C3.66 2.64 4.32 5.28 5 8 C4.34 8 3.68 8 3 8 C3 7.34 3 6.68 3 6 C2.34 6 1.68 6 1 6 C0.67 4.02 0.34 2.04 0 0 Z " fill="#8C672F" transform="translate(13,82)"/>
<path d="M0 0 C1.32 0 2.64 0 4 0 C3.34 2.31 2.68 4.62 2 7 C1.67 6.34 1.34 5.68 1 5 C0.34 5 -0.32 5 -1 5 C-1 4.34 -1 3.68 -1 3 C-0.34 3 0.32 3 1 3 C0.67 2.01 0.34 1.02 0 0 Z " fill="#B6A377" transform="translate(112,60)"/>
<path d="M0 0 C0.66 0 1.32 0 2 0 C2 1.98 2 3.96 2 6 C0.68 6 -0.64 6 -2 6 C-1.34 4.02 -0.68 2.04 0 0 Z " fill="#8E763A" transform="translate(48,61)"/>
<path d="M0 0 C0 0.66 0 1.32 0 2 C-2.97 2.66 -5.94 3.32 -9 4 C-5 0 -5 0 0 0 Z " fill="#B7A468" transform="translate(56,26)"/>
<path d="M0 0 C2 1 2 1 2 1 Z " fill="#000000" transform="translate(64,82)"/>
<path d="" fill="#000000" transform="translate(0,0)"/>
</svg>
