<svg width="30" height="30" viewBox="0 0 30 30" fill="none" xmlns="http://www.w3.org/2000/svg">
<g filter="url(#filter0_d_572_3271)">
<path d="M15 25.4083L13.6203 24.168C11.5482 22.2882 9.83469 20.6729 8.47969 19.3221C7.12469 17.971 6.05094 16.7686 5.25844 15.7149C4.46594 14.6613 3.91229 13.7002 3.5975 12.8314C3.2825 11.9629 3.125 11.0815 3.125 10.1874C3.125 8.41342 3.72313 6.92821 4.91938 5.73175C6.11583 4.5355 7.60104 3.93738 9.375 3.93738C10.4662 3.93738 11.4975 4.19259 12.4688 4.703C13.44 5.21342 14.2837 5.9454 15 6.89894C15.7163 5.9454 16.56 5.21342 17.5313 4.703C18.5025 4.19259 19.5338 3.93738 20.625 3.93738C22.399 3.93738 23.8842 4.5355 25.0806 5.73175C26.2769 6.92821 26.875 8.41342 26.875 10.1874C26.875 11.0815 26.7175 11.9629 26.4025 12.8314C26.0877 13.7002 25.5341 14.6613 24.7416 15.7149C23.9491 16.7686 22.8773 17.971 21.5263 19.3221C20.1754 20.6729 18.4599 22.2882 16.3797 24.168L15 25.4083ZM15 22.8749C17 21.0753 18.6458 19.5328 19.9375 18.2474C21.2292 16.9622 22.25 15.8456 23 14.8977C23.75 13.9498 24.2708 13.108 24.5625 12.3724C24.8542 11.637 25 10.9086 25 10.1874C25 8.93738 24.5833 7.89571 23.75 7.06238C22.9167 6.22904 21.875 5.81238 20.625 5.81238C19.6379 5.81238 18.7256 6.09238 17.8881 6.65238C17.0508 7.21259 16.3878 7.99186 15.8991 8.99019H14.1009C13.6041 7.98373 12.939 7.20248 12.1056 6.64644C11.2723 6.0904 10.3621 5.81238 9.375 5.81238C8.13292 5.81238 7.09323 6.22904 6.25594 7.06238C5.41865 7.89571 5 8.93738 5 10.1874C5 10.9086 5.14583 11.637 5.4375 12.3724C5.72917 13.108 6.25 13.9498 7 14.8977C7.75 15.8456 8.77083 16.9602 10.0625 18.2414C11.3542 19.5227 13 21.0672 15 22.8749Z" fill="#CEAB52"/>
</g>
<defs>
<filter id="filter0_d_572_3271" x="-0.875" y="-0.0626221" width="31.75" height="29.4709" filterUnits="userSpaceOnUse" color-interpolation-filters="sRGB">
<feFlood flood-opacity="0" result="BackgroundImageFix"/>
<feColorMatrix in="SourceAlpha" type="matrix" values="0 0 0 0 0 0 0 0 0 0 0 0 0 0 0 0 0 0 127 0" result="hardAlpha"/>
<feOffset/>
<feGaussianBlur stdDeviation="2"/>
<feComposite in2="hardAlpha" operator="out"/>
<feColorMatrix type="matrix" values="0 0 0 0 1 0 0 0 0 1 0 0 0 0 1 0 0 0 0.5 0"/>
<feBlend mode="normal" in2="BackgroundImageFix" result="effect1_dropShadow_572_3271"/>
<feBlend mode="normal" in="SourceGraphic" in2="effect1_dropShadow_572_3271" result="shape"/>
</filter>
</defs>
</svg>
