<svg width="24" height="24" viewBox="0 0 24 24" fill="none" xmlns="http://www.w3.org/2000/svg">
<g clip-path="url(#clip0_497_267)">
<path d="M18.75 0H5.25C2.3505 0 0 2.3505 0 5.25V8.00002H24V5.25C24 2.3505 21.6495 0 18.75 0Z" fill="#F5F5F5"/>
<path d="M0 18.75C0 21.6495 2.3505 24 5.25 24H18.75C21.6495 24 24 21.6495 24 18.75V16H0V18.75Z" fill="#FF4B55"/>
<path d="M24 8.00012H0V16.0003H24V8.00012Z" fill="#41479B"/>
<path d="M9.92855 4.94346C9.92855 4.94346 9.80137 8.99496 9.23283 10.1327C8.52909 11.531 7.82161 11.9389 6.76894 12.3159C5.71641 11.9391 5.00888 11.5314 4.30505 10.1327C3.73669 8.99482 3.60928 4.94379 3.60938 4.94346C5.61811 4.03643 7.91981 4.03643 9.92855 4.94346Z" fill="#41479B"/>
<path d="M7.68345 10.5619C7.60648 10.5125 7.55094 10.4772 7.42461 10.4772C7.29861 10.4772 7.24306 10.5125 7.16647 10.5619C7.07872 10.6178 6.9695 10.6877 6.76653 10.6877C6.56342 10.6877 6.4542 10.6178 6.36645 10.5615C6.28981 10.5125 6.23445 10.4772 6.10845 10.4772C5.98245 10.4772 5.92709 10.5125 5.85045 10.5615C5.76753 10.6147 5.66267 10.678 5.48047 10.6851C5.86405 11.1529 6.26623 11.3748 6.76822 11.5675C7.26987 11.3748 7.67197 11.1531 8.05564 10.6853C7.87198 10.6786 7.76666 10.6148 7.68345 10.5619Z" fill="#F5F5F5"/>
<path d="M5.19311 9.8134C5.26975 9.86243 5.32492 9.89773 5.45059 9.89773C5.57659 9.89773 5.63195 9.86243 5.70859 9.8134C5.79634 9.7572 5.90556 9.68726 6.10853 9.68726C6.3115 9.68726 6.42067 9.7572 6.50847 9.81307C6.58511 9.86243 6.64061 9.89778 6.76661 9.89778C6.89261 9.89778 6.94797 9.86248 7.02461 9.81345C7.11236 9.75725 7.22158 9.68731 7.42469 9.68731C7.62798 9.68731 7.73734 9.75725 7.82514 9.81312C7.90211 9.86248 7.95747 9.89782 8.0838 9.89782C8.21012 9.89782 8.26567 9.86253 8.34264 9.81312C8.416 9.76639 8.50806 9.71234 8.65389 9.695C8.69214 9.59548 8.72917 9.48214 8.76381 9.34437L7.82153 7.77392L7.47048 8.47606L6.76834 7.07178L6.06616 8.47601L5.71511 7.77387L4.77344 9.34339C4.80789 9.48106 4.84487 9.59496 4.88312 9.69504C5.02834 9.71243 5.11994 9.76643 5.19311 9.8134Z" fill="#F5F5F5"/>
<path d="M8.4841 10.0353C8.39635 10.0911 8.28695 10.1611 8.08365 10.1611C7.88054 10.1611 7.77113 10.0911 7.68338 10.0353C7.60641 9.9859 7.55087 9.95056 7.42454 9.95056C7.29854 9.95056 7.24299 9.98586 7.1664 10.0353C7.07865 10.0911 6.96943 10.1611 6.76646 10.1611C6.56335 10.1611 6.45413 10.0911 6.36638 10.0349C6.28974 9.98591 6.23438 9.95061 6.10838 9.95061C5.98238 9.95061 5.92702 9.98591 5.85038 10.0349C5.76263 10.0912 5.65341 10.1611 5.45045 10.1611C5.24766 10.1611 5.13863 10.0911 5.05102 10.0349C5.0506 10.0347 5.05027 10.0345 5.0498 10.0342C5.11862 10.1591 5.18743 10.2738 5.25596 10.3779C5.30724 10.406 5.36077 10.4244 5.4504 10.4244C5.5764 10.4244 5.63176 10.3891 5.7084 10.3401C5.79615 10.2839 5.90537 10.214 6.10834 10.214C6.3113 10.214 6.42048 10.2839 6.50827 10.3398C6.58491 10.3891 6.64041 10.4245 6.76641 10.4245C6.89241 10.4245 6.94777 10.3892 7.02441 10.3401C7.11216 10.2839 7.22138 10.214 7.42449 10.214C7.62779 10.214 7.73715 10.2839 7.82495 10.3398C7.90191 10.3892 7.95727 10.4245 8.0836 10.4245C8.17459 10.4245 8.22868 10.4058 8.28066 10.3771C8.34915 10.2732 8.41787 10.1585 8.48663 10.0338C8.48584 10.0342 8.48504 10.0347 8.4841 10.0353Z" fill="#F5F5F5"/>
<path d="M6.78295 5.86301L6.84454 6.06429L7.04967 6.017C7.06359 6.01376 7.07329 6.03055 7.06354 6.041L6.92001 6.19498L7.06354 6.34897C7.07329 6.35942 7.06359 6.3762 7.04967 6.37297L6.84454 6.32567L6.78295 6.52695C6.77878 6.54064 6.75942 6.54064 6.75525 6.52695L6.69365 6.32567L6.48853 6.37297C6.47461 6.37615 6.4649 6.35942 6.47465 6.34897L6.61818 6.19498L6.47465 6.041C6.4649 6.03055 6.47461 6.01376 6.48853 6.017L6.69365 6.06429L6.75525 5.86301C6.75942 5.84937 6.77878 5.84937 6.78295 5.86301Z" fill="#CEAB52"/>
<path d="M5.77318 4.89564L5.83478 5.09692L6.0399 5.04963C6.05382 5.04639 6.06353 5.06317 6.05378 5.07363L5.91025 5.22761L6.05378 5.38159C6.06353 5.39205 6.05382 5.40883 6.0399 5.40559L5.83478 5.3583L5.77318 5.55958C5.76901 5.57327 5.74965 5.57327 5.74548 5.55958L5.68389 5.3583L5.47876 5.40559C5.46484 5.40883 5.45514 5.39205 5.46489 5.38159L5.60842 5.22761L5.46489 5.07363C5.45514 5.06317 5.46484 5.04639 5.47876 5.04963L5.68389 5.09692L5.74548 4.89564C5.74965 4.88195 5.76901 4.88195 5.77318 4.89564Z" fill="#CEAB52"/>
<path d="M7.79956 4.89564L7.86115 5.09692L8.06628 5.04963C8.0802 5.04639 8.0899 5.06317 8.08015 5.07363L7.93662 5.22761L8.08015 5.38159C8.0899 5.39205 8.0802 5.40883 8.06628 5.40559L7.86115 5.3583L7.79956 5.55958C7.79539 5.57327 7.77603 5.57327 7.77186 5.55958L7.71026 5.3583L7.50514 5.40559C7.49121 5.40883 7.48151 5.39205 7.49126 5.38159L7.63479 5.22761L7.49126 5.07363C7.48151 5.06317 7.49117 5.04639 7.50514 5.04963L7.71026 5.09692L7.77186 4.89564C7.77603 4.88195 7.79539 4.88195 7.79956 4.89564Z" fill="#CEAB52"/>
<path d="M9.56498 4.79089C9.56709 4.90283 9.56896 5.01585 9.56896 5.13777C9.51829 6.40438 9.32985 9.16283 8.91909 9.99355C8.3136 11.2096 7.75452 11.6115 6.76879 11.9819C5.78305 11.6116 5.22407 11.2098 4.61896 9.99453C4.20679 9.16058 4.01695 6.3553 3.96852 5.13786C3.96852 5.01575 3.97049 4.90405 3.97223 4.79113C3.85068 4.83871 3.72993 4.88905 3.61035 4.943C3.61879 5.189 3.68005 6.80263 3.86399 8.22149C3.96777 9.01353 4.11051 9.74357 4.30495 10.1327C5.00877 11.5314 5.7163 11.9391 6.76884 12.3159C7.82151 11.939 8.52899 11.5311 9.23273 10.1327C9.42716 9.74361 9.56995 9.01358 9.67368 8.22149C9.85757 6.80268 9.91874 5.189 9.92723 4.943C9.80751 4.88891 9.68666 4.83852 9.56498 4.79089Z" fill="#FF1722"/>
</g>
<defs>
<clipPath id="clip0_497_267">
<rect width="24" height="24" fill="white"/>
</clipPath>
</defs>
</svg>
