<svg width="21" height="20" viewBox="0 0 21 20" fill="none" xmlns="http://www.w3.org/2000/svg">
<path d="M10.179 0.420654C10.2551 0.193179 10.5774 0.193175 10.6536 0.420654L12.8167 6.88062C12.9183 7.184 13.2018 7.38945 13.5217 7.39233L20.3342 7.45386C20.5737 7.45639 20.6732 7.76232 20.4807 7.90503L15.0051 11.9587C14.748 12.1491 14.6395 12.4817 14.7356 12.7869L16.7825 19.2849C16.8545 19.5137 16.594 19.7025 16.3987 19.5632L10.8518 15.6091C10.5913 15.4234 10.2412 15.4234 9.98071 15.6091L4.43384 19.5632C4.2385 19.7025 3.97797 19.5137 4.05005 19.2849L6.09692 12.7869C6.19304 12.4817 6.08453 12.1491 5.82739 11.9587L0.351807 7.90503C0.159336 7.76232 0.258792 7.45639 0.498291 7.45386L7.31079 7.39233C7.63073 7.38945 7.91426 7.184 8.01587 6.88062L10.179 0.420654Z" stroke="#FFC107" stroke-width="0.5"/>
</svg>
