<svg width="21" height="20" viewBox="0 0 21 20" fill="none" xmlns="http://www.w3.org/2000/svg">
<path d="M9.94214 0.341219C10.0945 -0.113736 10.738 -0.113735 10.8904 0.341219L13.0539 6.80135C13.1216 7.00361 13.3102 7.14063 13.5235 7.14255L20.336 7.20389C20.8158 7.20821 21.0147 7.82022 20.6291 8.10572L15.1537 12.1596C14.9822 12.2866 14.9102 12.5083 14.9743 12.7117L17.0211 19.2098C17.1653 19.6674 16.6447 20.0456 16.254 19.7671L10.7065 15.8124C10.5328 15.6886 10.2997 15.6886 10.126 15.8124L4.57852 19.7671C4.18784 20.0456 3.66724 19.6674 3.81138 19.2098L5.85823 12.7117C5.92231 12.5083 5.85028 12.2866 5.67885 12.1596L0.203465 8.10571C-0.182139 7.82022 0.016715 7.20821 0.496486 7.20389L7.309 7.14255C7.52229 7.14063 7.71088 7.00361 7.77862 6.80135L9.94214 0.341219Z" fill="#FFC107"/>
</svg>
